<svg class="animated" id="freepik_stories-bottle-of-water" xmlns="http://www.w3.org/2000/svg" viewBox="0 0 500 500" version="1.1" xmlns:xlink="http://www.w3.org/1999/xlink" xmlns:svgjs="http://svgjs.com/svgjs"><style>svg#freepik_stories-bottle-of-water:not(.animated) .animable {opacity: 0;}svg#freepik_stories-bottle-of-water.animated #freepik--background-complete--inject-5 {animation: 6s Infinite  linear floating;animation-delay: 0s;}svg#freepik_stories-bottle-of-water.animated #freepik--back-water--inject-5 {animation: 3s Infinite  linear floating;animation-delay: 0s;}svg#freepik_stories-bottle-of-water.animated #freepik--Bottle--inject-5 {animation: 3s Infinite  linear floating;animation-delay: 0s;}svg#freepik_stories-bottle-of-water.animated #freepik--front-water--inject-5 {animation: 1.5s Infinite  linear floating;animation-delay: 0s;}            @keyframes floating {                0% {                    opacity: 1;                    transform: translateY(0px);                }                50% {                    transform: translateY(-10px);                }                100% {                    opacity: 1;                    transform: translateY(0px);                }            }        </style><g id="freepik--background-complete--inject-5" class="animable" style="transform-origin: 254.943px 192.787px;"><path d="M111.71,173.15a1.6,1.6,0,0,0,0,.35c0,.26,0,.6,0,1s0,1,0,1.65.08,1.42.12,2.26a51.28,51.28,0,0,0,3.24,14A81.76,81.76,0,0,0,125.32,211c4.7,6.52,10.62,13.07,16.77,19.95s11.86,13.61,16.14,20.35A70.49,70.49,0,0,1,167,270.5a47.15,47.15,0,0,1,1.65,14.13c-.06.84-.11,1.58-.15,2.24s-.16,1.19-.21,1.63-.09.74-.12,1a1.83,1.83,0,0,0,0,.35,1.82,1.82,0,0,0,.09-.34c0-.26.11-.59.19-1s.18-1,.26-1.63.14-1.41.22-2.25a45.53,45.53,0,0,0-1.46-14.26A69.27,69.27,0,0,0,158.74,251c-4.28-6.81-10-13.56-16.15-20.46s-12.08-13.4-16.77-19.87a82.86,82.86,0,0,1-10.39-18.41A52.87,52.87,0,0,1,112,178.39c-.07-.83-.13-1.58-.18-2.23s0-1.2,0-1.65,0-.74,0-1S111.73,173.15,111.71,173.15Z" style="fill: rgb(224, 224, 224); transform-origin: 140.351px 231.5px;" id="ela4psfszaxt" class="animable"></path><path d="M131.69,239.93c.25-.31.84-.29,1.34-.23a24,24,0,0,1,11.15,4.49,17,17,0,0,1,6.3,8.6l-.74-.18a20,20,0,0,1-10.2-4.09,48,48,0,0,1-7.41-7.32C131.78,240.8,131.41,240.29,131.69,239.93Z" style="fill: rgb(235, 235, 235); transform-origin: 141.036px 246.227px;" id="elve6vmebgumf" class="animable"></path><path d="M144.15,208.21c.39,0,.78.41,1.07.83a24,24,0,0,1,4.28,11.22,17,17,0,0,1-2,10.47l-.38-.66a20,20,0,0,1-3.92-10.27,48.62,48.62,0,0,1,.34-10.41C143.57,208.86,143.7,208.24,144.15,208.21Z" style="fill: rgb(235, 235, 235); transform-origin: 146.354px 219.47px;" id="elhoijzupvk4f" class="animable"></path><path d="M139.31,244.57a5.94,5.94,0,0,0,.95,1.14,25.56,25.56,0,0,0,3.05,2.65c2.7,2.11,6.88,4.3,11.3,7s7.87,5.89,9.62,8.75a22.76,22.76,0,0,1,2.2,5,5.47,5.47,0,0,0-.23-1.46,14,14,0,0,0-1.57-3.74c-1.7-3-5.22-6.38-9.68-9.08S146.32,250,143.58,248,139.4,244.48,139.31,244.57Z" style="fill: rgb(224, 224, 224); transform-origin: 152.87px 256.838px;" id="elicmnaapusv" class="animable"></path><path d="M105.58,212.67c.18-.35.77-.45,1.28-.48a24.18,24.18,0,0,1,11.79,2.27,17,17,0,0,1,7.83,7.24l-.76,0a19.93,19.93,0,0,1-10.79-2.07,48.15,48.15,0,0,1-8.68-5.77C105.83,213.51,105.38,213.07,105.58,212.67Z" style="fill: rgb(235, 235, 235); transform-origin: 116.006px 216.963px;" id="elrsvc1o37og" class="animable"></path><path d="M114,215.76a5,5,0,0,0,1.15,1,25.35,25.35,0,0,0,3.53,2c3.07,1.56,7.64,2.92,12.5,4.7A32.65,32.65,0,0,1,142,230.77c2.43,2.38,3.76,4,3.85,3.95a6.86,6.86,0,0,0-.85-1.22c-.59-.76-1.48-1.82-2.67-3.07a30.82,30.82,0,0,0-11-7.61c-4.91-1.8-9.45-3.07-12.54-4.5S114,215.66,114,215.76Z" style="fill: rgb(224, 224, 224); transform-origin: 129.925px 225.238px;" id="elt31dzr4520b" class="animable"></path><path d="M89.43,165.54c.29-.26.88-.14,1.36,0A24.07,24.07,0,0,1,101,172a17,17,0,0,1,4.66,9.59l-.7-.31a19.93,19.93,0,0,1-9.3-5.85,48.5,48.5,0,0,1-6-8.53C89.36,166.41,89.09,165.84,89.43,165.54Z" style="fill: rgb(235, 235, 235); transform-origin: 97.4659px 173.488px;" id="el3u0dcgncze3" class="animable"></path><path d="M96.09,171.47a3.46,3.46,0,0,0,.49.95,20.65,20.65,0,0,0,1.72,2.35,51.67,51.67,0,0,0,6.92,6.6c1.43,1.2,2.79,2.33,4,3.39a28.31,28.31,0,0,1,3,3c1.55,1.86,2.35,3.15,2.44,3.09a3.49,3.49,0,0,0-.46-1,23.61,23.61,0,0,0-1.61-2.42,25.33,25.33,0,0,0-2.91-3.2c-1.2-1.09-2.56-2.24-4-3.43a70.18,70.18,0,0,1-7-6.41C97,172.68,96.19,171.4,96.09,171.47Z" style="fill: rgb(224, 224, 224); transform-origin: 105.375px 181.16px;" id="elwd59yuucw1" class="animable"></path><path d="M145.13,213.86a5.23,5.23,0,0,0-.08,1.43c0,.93.06,2.27.22,3.91s.42,3.61.84,5.76a35.08,35.08,0,0,0,2,6.86,35.51,35.51,0,0,0,1.75,3.26l1.69,3c1.06,1.89,2,3.63,2.68,5.11,1.42,3,2.1,4.89,2.2,4.85a5.79,5.79,0,0,0-.36-1.39c-.29-.88-.76-2.14-1.42-3.66s-1.53-3.28-2.57-5.21l-1.65-3c-.57-1-1.22-2.09-1.71-3.21a37.08,37.08,0,0,1-2-6.72c-.44-2.12-.75-4.05-1-5.68s-.35-3-.43-3.87A6.93,6.93,0,0,0,145.13,213.86Z" style="fill: rgb(224, 224, 224); transform-origin: 150.731px 230.95px;" id="elzzwngs2co8h" class="animable"></path><path d="M122.68,178.22c.39,0,.7.54.92,1A24,24,0,0,1,126,191a17.07,17.07,0,0,1-3.72,10l-.26-.72a20,20,0,0,1-2.19-10.77,48.58,48.58,0,0,1,2-10.22C122,178.77,122.23,178.18,122.68,178.22Z" style="fill: rgb(235, 235, 235); transform-origin: 122.901px 189.609px;" id="elci2bq1839qj" class="animable"></path><path d="M123,184a14.69,14.69,0,0,0-.84,3.68,56.49,56.49,0,0,0-.62,9.09,30,30,0,0,0,.45,5,31.92,31.92,0,0,0,1.14,4,21,21,0,0,0,1.32,3.54,21.87,21.87,0,0,0-.87-3.67c-.29-1.13-.75-2.44-1-3.92a35.53,35.53,0,0,1-.38-4.93,77.73,77.73,0,0,1,.42-9C122.87,185.4,123.12,184,123,184Z" style="fill: rgb(224, 224, 224); transform-origin: 122.993px 196.655px;" id="elk0in8ezhn7" class="animable"></path><path d="M363.2,62.14a5.75,5.75,0,0,1-.38,1l-1.19,2.65c-1,2.3-2.48,5.66-4.2,9.83s-3.7,9.18-6,14.68a177.93,177.93,0,0,1-8.4,17.56,88.06,88.06,0,0,1-11.3,15.86A60.64,60.64,0,0,1,319.64,134a45.54,45.54,0,0,1-9.62,4.73c-1.18.46-2.16.64-2.79.84a6.82,6.82,0,0,1-1,.23,4.79,4.79,0,0,1,.95-.37c.62-.24,1.57-.48,2.73-1a48.23,48.23,0,0,0,9.43-4.89,61.79,61.79,0,0,0,11.85-10.37,88.71,88.71,0,0,0,11.16-15.77A187.88,187.88,0,0,0,350.78,90c2.31-5.49,4.4-10.44,6.17-14.62s3.3-7.48,4.42-9.75c.55-1.14,1-2,1.32-2.6A4.51,4.51,0,0,1,363.2,62.14Z" style="fill: rgb(224, 224, 224); transform-origin: 334.715px 100.97px;" id="elsqnztlublhl" class="animable"></path><path d="M338.77,78.78c.43.1.7.71.88,1.24a27,27,0,0,1,.92,13.42A19,19,0,0,1,335,104l-.18-.83A22.31,22.31,0,0,1,334,90.88a53.55,53.55,0,0,1,3.75-11C337.94,79.29,338.28,78.68,338.77,78.78Z" style="fill: rgb(235, 235, 235); transform-origin: 337.259px 91.3846px;" id="ell8wvnu10lf" class="animable"></path><path d="M376.8,75.86c.22.39,0,1-.31,1.5a27,27,0,0,1-9.23,9.78,19,19,0,0,1-11.53,3l.48-.7a22.42,22.42,0,0,1,8.43-8.95A53.79,53.79,0,0,1,375.3,75.8C375.86,75.6,376.54,75.43,376.8,75.86Z" style="fill: rgb(235, 235, 235); transform-origin: 366.309px 82.8857px;" id="eltxlvvriaya" class="animable"></path><path d="M337.81,88.72c.13,0-.76,2.23-1.35,6s-.75,9-1.28,14.75-2.22,11-4.42,14.18a16,16,0,0,1-3,3.4,5.38,5.38,0,0,1-1.37.94,24,24,0,0,0,3.93-4.63c2-3.16,3.59-8.23,4.13-14s.69-11,1.5-14.78a29.19,29.19,0,0,1,1.19-4.36A6.46,6.46,0,0,1,337.81,88.72Z" style="fill: rgb(224, 224, 224); transform-origin: 332.106px 108.355px;" id="elqrqcig1cgn" class="animable"></path><path d="M353.5,39.19c.45,0,.83.56,1.11,1.05a27,27,0,0,1,3.46,13,19,19,0,0,1-3.48,11.42l-.34-.78A22.39,22.39,0,0,1,351.08,52a53.34,53.34,0,0,1,1.58-11.56C352.78,39.85,353,39.18,353.5,39.19Z" style="fill: rgb(235, 235, 235); transform-origin: 354.576px 51.9249px;" id="elc2y8tvvgoyw" class="animable"></path><path d="M354.46,49.13c.14,0-.32,2.35-.19,6.15s1,9,1.58,14.83a34.5,34.5,0,0,1-2.32,14.78c-.67,1.8-1.31,3.22-1.78,4.18a7.18,7.18,0,0,1-.82,1.45c-.12,0,.89-2.2,2.11-5.8a36.69,36.69,0,0,0,2.07-14.54c-.58-5.77-1.44-11-1.36-14.89a28,28,0,0,1,.33-4.54A6.57,6.57,0,0,1,354.46,49.13Z" style="fill: rgb(224, 224, 224); transform-origin: 353.419px 69.825px;" id="el8ht2kqs2mwi" class="animable"></path><path d="M371.59,79.61a8,8,0,0,1-1.35.87c-.89.53-2.15,1.31-3.69,2.33s-3.33,2.26-5.25,3.75a41.36,41.36,0,0,0-5.79,5.29c-.89,1-1.63,2.21-2.4,3.29s-1.51,2.12-2.21,3.13c-1.44,2-2.79,3.72-4,5.13s-2.24,2.49-3,3.2a5.77,5.77,0,0,1-1.23,1c-.09-.08,1.53-1.7,3.81-4.58,1.15-1.43,2.45-3.2,3.85-5.19l2.17-3.15A40.38,40.38,0,0,1,355,91.37,38.67,38.67,0,0,1,360.88,86c2-1.47,3.81-2.68,5.39-3.65s2.9-1.68,3.83-2.13A6,6,0,0,1,371.59,79.61Z" style="fill: rgb(224, 224, 224); transform-origin: 357.128px 93.605px;" id="elov5bms5mgj" class="animable"></path><path d="M389,309.62c-.22-.33-.82-.36-1.32-.33a24.12,24.12,0,0,0-11.48,3.56,17,17,0,0,0-7,8.07l.75-.12a19.94,19.94,0,0,0,10.49-3.25,48.32,48.32,0,0,0,8-6.7C388.85,310.48,389.25,310,389,309.62Z" style="fill: rgb(235, 235, 235); transform-origin: 379.139px 315.101px;" id="eldebf6kgzvdq" class="animable"></path><path d="M381,313.62a5.76,5.76,0,0,1-1.05,1.07,24.81,24.81,0,0,1-3.28,2.41c-2.88,1.89-7.26,3.75-11.9,6.06a32.77,32.77,0,0,0-10,8.48c-2.15,2.64-3.29,4.43-3.38,4.36a5.7,5.7,0,0,1,.7-1.31c.51-.81,1.27-2,2.31-3.34a30.82,30.82,0,0,1,10.08-8.78c4.69-2.34,9.05-4.1,12-5.87S381,313.53,381,313.62Z" style="fill: rgb(224, 224, 224); transform-origin: 366.195px 324.809px;" id="ely7ipyxkai1" class="animable"></path><path d="M399.29,265.08c-.32-.23-.89,0-1.35.17a24.18,24.18,0,0,0-9.39,7.49A17,17,0,0,0,385,282.8l.66-.39a20,20,0,0,0,8.59-6.85,48.37,48.37,0,0,0,5-9.14C399.46,265.94,399.66,265.34,399.29,265.08Z" style="fill: rgb(235, 235, 235); transform-origin: 392.248px 273.892px;" id="elhlsfsiql95t" class="animable"></path><path d="M393.32,271.71a3.32,3.32,0,0,1-.37,1,21.3,21.3,0,0,1-1.45,2.52,51.68,51.68,0,0,1-6.15,7.33c-1.28,1.35-2.51,2.62-3.6,3.81a28,28,0,0,0-2.59,3.35c-1.34,2-2,3.39-2.08,3.34a3.05,3.05,0,0,1,.34-1,23.64,23.64,0,0,1,1.34-2.58A24.08,24.08,0,0,1,381.3,286c1.06-1.22,2.29-2.51,3.57-3.85a69.22,69.22,0,0,0,6.24-7.14C392.56,273,393.22,271.65,393.32,271.71Z" style="fill: rgb(224, 224, 224); transform-origin: 385.2px 282.385px;" id="el9yyag4bfe4" class="animable"></path><path d="M368.87,277.42c-.39.08-.65.61-.82,1.09a24.12,24.12,0,0,0-1.06,12A16.91,16.91,0,0,0,371.8,300l.17-.74a19.85,19.85,0,0,0,1-10.94,48,48,0,0,0-3.15-9.94C369.6,277.89,369.31,277.33,368.87,277.42Z" style="fill: rgb(235, 235, 235); transform-origin: 369.995px 288.705px;" id="elxkmkg8gyj0q" class="animable"></path><path d="M369.16,283.17a14.46,14.46,0,0,1,1.24,3.56,57.63,57.63,0,0,1,1.63,9,32,32,0,0,1,.11,5,32.49,32.49,0,0,1-.7,4.06,21.19,21.19,0,0,1-.91,3.65,21.49,21.49,0,0,1,.45-3.74c.16-1.15.47-2.51.55-4a35.21,35.21,0,0,0-.17-4.94,78.92,78.92,0,0,0-1.42-8.92C369.47,284.58,369.07,283.2,369.16,283.17Z" style="fill: rgb(224, 224, 224); transform-origin: 370.669px 295.805px;" id="el4l7z7s44r3h" class="animable"></path><path d="M377,272.77a.93.93,0,0,1,.1.21c.06.18.14.38.24.64a21.59,21.59,0,0,1,.77,2.51,30.85,30.85,0,0,1,.73,9.61,44.52,44.52,0,0,1-3.54,13.84,82.81,82.81,0,0,1-8.88,15.08c-3.62,5.06-7.28,9.7-10.34,14.11A85,85,0,0,0,348.82,341a49.66,49.66,0,0,0-3.28,9c-.27,1.1-.46,2-.57,2.55-.05.27-.1.49-.14.67a.66.66,0,0,1-.06.22.58.58,0,0,1,0-.23l.09-.68c.07-.59.23-1.46.47-2.58a47,47,0,0,1,3.15-9.11,83.76,83.76,0,0,1,7.21-12.35c3.06-4.43,6.71-9.09,10.31-14.13a82.38,82.38,0,0,0,8.86-15,44.49,44.49,0,0,0,3.62-13.68,32.08,32.08,0,0,0-.56-9.54c-.26-1.1-.48-1.95-.67-2.52-.08-.26-.14-.47-.19-.65A.82.82,0,0,1,377,272.77Z" style="fill: rgb(224, 224, 224); transform-origin: 361.85px 313.105px;" id="elqgtn9atwxso" class="animable"></path><path d="M388,246.89a15.89,15.89,0,0,1-3.79-20.27c3.9,5.57,5.6,13.71,3.79,20.27" style="fill: rgb(235, 235, 235); transform-origin: 385.412px 236.755px;" id="ely9djqxjzeh" class="animable"></path><path d="M418.47,226.47c-8.11-7.76-9.1-21.82-2.15-30.65,4.83,8.92,5.95,21.25,2.15,30.65" style="fill: rgb(245, 245, 245); transform-origin: 416.216px 211.145px;" id="el10aaaoiuwvz" class="animable"></path><path d="M127.36,108.46a15.87,15.87,0,0,1,9-18.54c-.18,6.8-3.66,14.34-9,18.54" style="fill: rgb(245, 245, 245); transform-origin: 131.604px 99.19px;" id="elud5zxuol68" class="animable"></path><path d="M382.3,155.88a11.71,11.71,0,0,0-10.46-11,18.79,18.79,0,0,0,10.46,11" style="fill: rgb(245, 245, 245); transform-origin: 377.07px 150.38px;" id="elb7m8wk73uhq" class="animable"></path><path d="M99.59,118.6a11.71,11.71,0,0,0-10.45-11,18.77,18.77,0,0,0,10.45,11" style="fill: rgb(245, 245, 245); transform-origin: 94.365px 113.1px;" id="el8ssst0e08pk" class="animable"></path><path d="M115.77,360.61c-8.39,1.74-17.65-3.73-20.18-11.92,7.69.83,15.92,5.47,20.18,11.92" style="fill: rgb(235, 235, 235); transform-origin: 105.68px 354.812px;" id="elb2fx2avhzep" class="animable"></path><path d="M99.62,325c-5.93-6.19-6.21-16.94-.62-23.43,3.38,7,3.82,16.39.62,23.43" style="fill: rgb(235, 235, 235); transform-origin: 98.3884px 313.285px;" id="elut8ic3k1i3c" class="animable"></path><path d="M393.75,199.56a15.88,15.88,0,0,1-10.42-17.79c5.56,3.93,9.9,11,10.42,17.79" style="fill: rgb(235, 235, 235); transform-origin: 388.416px 190.665px;" id="el2os3rswypm" class="animable"></path><path d="M115.65,144.56a15.89,15.89,0,0,1,6.22-19.65c.82,6.75-1.53,14.72-6.22,19.65" style="fill: rgb(235, 235, 235); transform-origin: 118.216px 134.735px;" id="elugz036s1br" class="animable"></path><path d="M154.53,92.1a15.89,15.89,0,0,1,19.85-5.59c-5.21,4.39-13.15,6.8-19.85,5.59" style="fill: rgb(235, 235, 235); transform-origin: 164.455px 88.732px;" id="elyrh05rajmxo" class="animable"></path><path d="M319.75,24.64a15.88,15.88,0,0,1,12.18,16.64c-5.93-3.34-11-9.94-12.18-16.64" style="fill: rgb(235, 235, 235); transform-origin: 325.862px 32.96px;" id="eltdtg1ihsgrj" class="animable"></path></g><g id="freepik--back-water--inject-5" class="animable" style="transform-origin: 258.793px 250.385px;"><path d="M152.91,476.16c7.09-7.82,11.1-22,12-32.53a93.09,93.09,0,0,0-10.64-51.84c-1.85-3.45-3.94-6.83-5-10.59-1.67-5.79-1-12.48-4.62-17.29-1.82-2.42-4.79-5.2-3.28-7.83,1.16-2,4.38-1.85,6.09-.26s2.34,4,2.94,6.26a145.21,145.21,0,0,0,8.83,24.44c1.07,2.29,3.09,5,5.49,4.18,3.28-1.07,1.63-6-.57-8.69,2.4-.66,4.85,1.33,5.75,3.66s.71,4.9.85,7.38c.78,14,11.57,25.13,21.68,34.84a5.19,5.19,0,0,0,2.78,1.71c1.86.22,3.4-1.72,3.48-3.58s-.83-3.62-1.73-5.26c4.25-2.65,9.86.89,12.45,5.18s3.8,9.5,7.35,13,11,3.74,12.42-1.08c1.07-3.65-2-8.11.31-11.13,1.73-2.26,5.18-1.91,7.94-1.26-.68,4.8-1.28,10,1.14,14.21s9.24,6,12.06,2c1.19-1.67,1.35-3.83,1.78-5.84a20.61,20.61,0,0,1,5.79-10.5c1.6-1.56,3.72-2.92,5.93-2.56,3.11.51,4.86,4.11,7.88,5,2.58.78,5.42-.7,7-2.86s2.28-4.86,2.92-7.49l2.88-12c1-4.28,2.28-8.89,5.78-11.55s9.9-1.55,10.61,2.79c.93,5.75-8.21,11.09-4.79,15.8a5.4,5.4,0,0,0,3.56,2c6,1,11.34-4.25,13.73-9.83s3-11.85,5.77-17.25,9.09-9.89,14.73-7.63c1.61.64,3,1.79,4.71,2.19a8.44,8.44,0,0,0,5.76-1.05c7-3.64,10.18-11.71,13.22-19,.67-1.61,1.48-3.34,3-4.13s3.55-.41,5.35-.57c5.69-.51,9.05-6.41,11.65-11.5s6.64-10.79,12.34-10.39a2.71,2.71,0,0,1,1.84.71c.82.91.37,2.38-.33,3.39-2.85,4.12-8.61,5.33-11.7,9.28-4,5.14-2.08,12.6-3.57,19-2.15,9.2-11,14.88-18.48,20.69-12.2,9.52-22.35,21.94-28,36.36s-6.51,30.87-1.21,45.41c1.07,2.92,3.18,6.26,6.28,5.95" style="fill: rgb(64, 123, 255); transform-origin: 266.733px 405.725px;" id="ele2jz3jr9q0b" class="animable"></path><g id="el2kes7jkjgq6"><g style="opacity: 0.9; transform-origin: 334.735px 476.181px;" class="animable"><path d="M335.16,476.17h-.85A4,4,0,0,0,335.16,476.17Z" style="fill: rgb(255, 255, 255); transform-origin: 334.735px 476.181px;" id="eld8okm161oli" class="animable"></path></g></g><g id="el3wi3ufz6js4"><g style="opacity: 0.8; transform-origin: 266.796px 405.83px;" class="animable"><path d="M392.15,336.13a2.71,2.71,0,0,0-1.84-.71c-5.7-.4-9.74,5.3-12.34,10.39s-6,11-11.65,11.5c-1.8.16-3.74-.26-5.35.57s-2.37,2.52-3,4.13c-3,7.28-6.23,15.35-13.22,19a8.44,8.44,0,0,1-5.76,1.05c-1.69-.4-3.1-1.55-4.71-2.19-5.64-2.26-11.95,2.23-14.73,7.63s-3.39,11.66-5.77,17.25S306,415.56,300,414.57a5.4,5.4,0,0,1-3.56-2c-3.42-4.71,5.72-10.05,4.79-15.8-.71-4.34-7.1-5.44-10.61-2.79s-4.75,7.27-5.78,11.55l-2.88,12c-.64,2.63-1.3,5.33-2.92,7.49s-4.46,3.64-7,2.86c-3-.91-4.77-4.51-7.88-5-2.21-.36-4.33,1-5.93,2.56a20.61,20.61,0,0,0-5.79,10.5c-.43,2-.59,4.17-1.78,5.84-2.82,3.94-9.63,2.16-12.06-2s-1.82-9.41-1.14-14.21c-2.76-.65-6.21-1-7.94,1.26-2.31,3,.76,7.48-.31,11.13-1.41,4.82-8.87,4.62-12.42,1.08s-4.75-8.75-7.35-13-8.2-7.83-12.45-5.18c.9,1.64,1.82,3.39,1.73,5.26s-1.62,3.8-3.48,3.58a5.19,5.19,0,0,1-2.78-1.71c-10.11-9.71-20.9-20.83-21.68-34.84-.14-2.48,0-5.06-.85-7.38s-3.35-4.32-5.75-3.67c2.2,2.66,3.85,7.63.57,8.7-2.4.79-4.42-1.89-5.49-4.18a145.21,145.21,0,0,1-8.83-24.44c-.6-2.26-1.22-4.68-2.94-6.26s-4.93-1.77-6.09.26c-1.51,2.63,1.46,5.41,3.28,7.83,3.62,4.81,2.95,11.5,4.62,17.29,1.08,3.76,3.17,7.14,5,10.59a93.09,93.09,0,0,1,10.64,51.84c-.92,10.52-4.93,24.71-12,32.53h181.4c-2.64-.31-4.46-3.29-5.43-5.94-5.3-14.54-4.41-31,1.21-45.41s15.78-26.84,28-36.36c7.46-5.81,16.33-11.49,18.48-20.69,1.49-6.36-.45-13.82,3.57-19,3.09-3.95,8.85-5.16,11.7-9.28C392.52,338.51,393,337,392.15,336.13Z" style="fill: rgb(255, 255, 255); transform-origin: 266.796px 405.83px;" id="elfr70xdv7h5" class="animable"></path></g></g><path d="M384.25,344.82a1.31,1.31,0,0,1-.34.08,5.92,5.92,0,0,0-1,.21,8.21,8.21,0,0,0-3.32,1.95,14.86,14.86,0,0,0-3.43,5.06c-1,2.2-1.54,4.91-2.45,7.83a22.47,22.47,0,0,1-1.84,4.44,13.42,13.42,0,0,1-1.47,2.12c-.58.66-1.22,1.27-1.85,1.91a13.58,13.58,0,0,0-1.75,2,11,11,0,0,0-1.19,2.49c-.64,1.77-1,3.72-1.8,5.61A19.47,19.47,0,0,1,349,390.1c-2.22.41-4.52.74-6.45,2a17.11,17.11,0,0,0-4.82,4.92,48.49,48.49,0,0,0-3.47,5.84,49.63,49.63,0,0,0-2.53,6c-.71,2-1.2,4.05-1.71,6a20.85,20.85,0,0,1-2.18,5.62,9.52,9.52,0,0,1-4.18,3.83c-3.47,1.69-7.84-.91-7.73-4.27l.24.18a14,14,0,0,0-6.25,4.55,15,15,0,0,0-2.68,5.22,15.6,15.6,0,0,0-.54,5,1.23,1.23,0,0,1-.05-.33c0-.21-.06-.54-.07-1a14.21,14.21,0,0,1,.46-3.74,15.17,15.17,0,0,1,2.66-5.34,14.25,14.25,0,0,1,6.35-4.71l.25-.09v.26a4.25,4.25,0,0,0,2.36,3.68,5.25,5.25,0,0,0,4.84.18,9.06,9.06,0,0,0,4-3.67,20.25,20.25,0,0,0,2.1-5.5c.5-2,1-4,1.71-6.08a48.88,48.88,0,0,1,6-12,17.64,17.64,0,0,1,5-5.06c2-1.3,4.43-1.64,6.62-2a19,19,0,0,0,14.43-11.23c.79-1.82,1.16-3.76,1.82-5.58a11.4,11.4,0,0,1,1.25-2.58,14.22,14.22,0,0,1,1.82-2.09c.63-.63,1.27-1.24,1.83-1.88a13.46,13.46,0,0,0,1.44-2,21.8,21.8,0,0,0,1.84-4.36,78.75,78.75,0,0,1,2.54-7.83,14.81,14.81,0,0,1,3.55-5.09,8.09,8.09,0,0,1,3.43-1.9,6.33,6.33,0,0,1,1-.17Z" style="fill: rgb(255, 255, 255); transform-origin: 345.415px 389.905px;" id="elf2lgxgbg7p5" class="animable"></path><path d="M199.55,139.7c.43-8.93,1.15-18.61,7.08-25.3,7.07-8,18.93-8.92,29.53-10s22.7-4,27.45-13.5c1.1-2.2,1.74-4.67,3.3-6.58,3.57-4.34,11.66-3.33,14,1.76,4.65,1.32,7.4-5.61,5.91-10.21s-4.94-9-4-13.72c.86-4.36,5.51-7.28,9.95-7.17s8.52,2.71,11.48,6A26.63,26.63,0,0,1,308.08,90a27.48,27.48,0,0,1-25.33,14.75c-6.66-.31-14.19-2.83-19.42,1.3-3.68,2.91-4.82,8.29-8.7,10.92-5.85,4-13.45-.47-20.26-2.34-15-4.12-32.29,7.67-33.93,23.15" style="fill: rgb(64, 123, 255); transform-origin: 255.144px 97.3385px;" id="elhnow36mqh1u" class="animable"></path><g id="el669axghz99v"><g style="opacity: 0.8; transform-origin: 255.144px 97.3385px;" class="animable"><path d="M199.55,139.7c.43-8.93,1.15-18.61,7.08-25.3,7.07-8,18.93-8.92,29.53-10s22.7-4,27.45-13.5c1.1-2.2,1.74-4.67,3.3-6.58,3.57-4.34,11.66-3.33,14,1.76,4.65,1.32,7.4-5.61,5.91-10.21s-4.94-9-4-13.72c.86-4.36,5.51-7.28,9.95-7.17s8.52,2.71,11.48,6A26.63,26.63,0,0,1,308.08,90a27.48,27.48,0,0,1-25.33,14.75c-6.66-.31-14.19-2.83-19.42,1.3-3.68,2.91-4.82,8.29-8.7,10.92-5.85,4-13.45-.47-20.26-2.34-15-4.12-32.29,7.67-33.93,23.15" style="fill: rgb(255, 255, 255); transform-origin: 255.144px 97.3385px;" id="elg9jc4j3fg9" class="animable"></path></g></g><path d="M167.8,347.22c1.51-3.13,2.9-6.71,0-10.17a5.65,5.65,0,0,0-3.11-2,3.58,3.58,0,0,0-3.77,1.28c-1,1.55-.21,3.59,1.32,5.35a32,32,0,0,0,5.51,5.53" style="fill: rgb(64, 123, 255); transform-origin: 164.984px 341.074px;" id="el8q7wzff5046" class="animable"></path><g id="elhl8bnehp4zj"><g style="opacity: 0.8; transform-origin: 164.984px 341.074px;" class="animable"><path d="M167.8,347.22c1.51-3.13,2.9-6.71,0-10.17a5.65,5.65,0,0,0-3.11-2,3.58,3.58,0,0,0-3.77,1.28c-1,1.55-.21,3.59,1.32,5.35a32,32,0,0,0,5.51,5.53" style="fill: rgb(255, 255, 255); transform-origin: 164.984px 341.074px;" id="elgsoyxsq0pjv" class="animable"></path></g></g><path d="M168.89,297.4a5.05,5.05,0,0,0-4.34,5.86,5.23,5.23,0,0,0,6.33,3.75,5.11,5.11,0,0,0-1.66-10" style="fill: rgb(64, 123, 255); transform-origin: 169.498px 302.087px;" id="elpsryd79l9b" class="animable"></path><g id="el1dxbsos9n2v"><g style="opacity: 0.8; transform-origin: 169.498px 302.087px;" class="animable"><path d="M168.89,297.4a5.05,5.05,0,0,0-4.34,5.86,5.23,5.23,0,0,0,6.33,3.75,5.11,5.11,0,0,0-1.66-10" style="fill: rgb(255, 255, 255); transform-origin: 169.498px 302.087px;" id="elxaf3k6v02ne" class="animable"></path></g></g><path d="M147.82,331.66c1.12-4.88-1.13-9.86-3.57-14.23a28.56,28.56,0,0,0-4.83-6.77,11.24,11.24,0,0,0-7.42-3.37,7,7,0,0,0-6.65,4.15c-1,2.68.12,5.83,2.18,7.83a16.55,16.55,0,0,0,7.66,3.71,19.21,19.21,0,0,1,4.17,1.29c3.46,1.76,7.54,3.61,8.46,7.39" style="fill: rgb(64, 123, 255); transform-origin: 136.547px 319.473px;" id="elp14896m8ltn" class="animable"></path><g id="el2bxvk5gkiab"><g style="opacity: 0.8; transform-origin: 136.547px 319.473px;" class="animable"><path d="M147.82,331.66c1.12-4.88-1.13-9.86-3.57-14.23a28.56,28.56,0,0,0-4.83-6.77,11.24,11.24,0,0,0-7.42-3.37,7,7,0,0,0-6.65,4.15c-1,2.68.12,5.83,2.18,7.83a16.55,16.55,0,0,0,7.66,3.71,19.21,19.21,0,0,1,4.17,1.29c3.46,1.76,7.54,3.61,8.46,7.39" style="fill: rgb(255, 255, 255); transform-origin: 136.547px 319.473px;" id="eld9vrj7dr4mu" class="animable"></path></g></g><path d="M317.72,330.84c-2.54.81-4.15,3.44-4.58,6.06a22.12,22.12,0,0,0,.61,7.92,10.72,10.72,0,0,1,9.37-10.13c2.55-.24,5.09.47,7.65.51s5.44-.87,6.5-3.2c1.27-2.8-.67-6.27.56-9.09,1.69-3.87,7.46-3.35,10.87-5.85,3.79-2.77,3.7-8.42,2.66-13a38.34,38.34,0,0,0-5.59-13.45,8.17,8.17,0,0,0-3-2.9,5.72,5.72,0,0,0-6.85,2.08,8.29,8.29,0,0,0-.7,7.45c1.38,3.79,4.9,6.85,5,10.88a7,7,0,0,1-6.37,6.83,11,11,0,0,0-2.93.2c-2,.67-2.69,3.11-3.16,5.18a15.43,15.43,0,0,1-3.52,7.12A31.65,31.65,0,0,1,317.72,330.84Z" style="fill: rgb(64, 123, 255); transform-origin: 332.499px 316.06px;" id="el46golnuevno" class="animable"></path><g id="el7nkbhq0k90h"><g style="opacity: 0.8; transform-origin: 332.499px 316.06px;" class="animable"><path d="M317.72,330.84c-2.54.81-4.15,3.44-4.58,6.06a22.12,22.12,0,0,0,.61,7.92,10.72,10.72,0,0,1,9.37-10.13c2.55-.24,5.09.47,7.65.51s5.44-.87,6.5-3.2c1.27-2.8-.67-6.27.56-9.09,1.69-3.87,7.46-3.35,10.87-5.85,3.79-2.77,3.7-8.42,2.66-13a38.34,38.34,0,0,0-5.59-13.45,8.17,8.17,0,0,0-3-2.9,5.72,5.72,0,0,0-6.85,2.08,8.29,8.29,0,0,0-.7,7.45c1.38,3.79,4.9,6.85,5,10.88a7,7,0,0,1-6.37,6.83,11,11,0,0,0-2.93.2c-2,.67-2.69,3.11-3.16,5.18a15.43,15.43,0,0,1-3.52,7.12A31.65,31.65,0,0,1,317.72,330.84Z" style="fill: rgb(255, 255, 255); transform-origin: 332.499px 316.06px;" id="elitvwmdqrola" class="animable"></path></g></g><path d="M148.23,184.85a4.07,4.07,0,1,1-3.62-4.48A4.06,4.06,0,0,1,148.23,184.85Z" style="fill: rgb(64, 123, 255); transform-origin: 144.184px 184.418px;" id="el1r8msf1k08h" class="animable"></path><g id="elum3kmrl1nc"><path d="M148.23,184.85a4.07,4.07,0,1,1-3.62-4.48A4.06,4.06,0,0,1,148.23,184.85Z" style="fill: rgb(255, 255, 255); opacity: 0.8; transform-origin: 144.184px 184.418px;" class="animable"></path></g><path d="M336.81,262.7c-.16-1.67-2.13-4.06-3.8-4-1.49.17-3.11.41-4.11,1.52-1.35,1.51-.82,4.09.71,5.43a4.73,4.73,0,0,0,4.67.94A3.94,3.94,0,0,0,336.81,262.7Z" style="fill: rgb(64, 123, 255); transform-origin: 332.471px 262.771px;" id="elnj3q4hoz0bg" class="animable"></path><g id="el7u8m7pwx37l"><g style="opacity: 0.8; transform-origin: 332.471px 262.771px;" class="animable"><path d="M336.81,262.7c-.16-1.67-2.13-4.06-3.8-4-1.49.17-3.11.41-4.11,1.52-1.35,1.51-.82,4.09.71,5.43a4.73,4.73,0,0,0,4.67.94A3.94,3.94,0,0,0,336.81,262.7Z" style="fill: rgb(255, 255, 255); transform-origin: 332.471px 262.771px;" id="elmkotkh9lhqk" class="animable"></path></g></g><path d="M277.23,28.51a4,4,0,1,1-4-4A4,4,0,0,1,277.23,28.51Z" style="fill: rgb(64, 123, 255); transform-origin: 273.23px 28.51px;" id="el1hv2982xp8" class="animable"></path><g id="elmygvohssp5"><path d="M277.23,28.51a4,4,0,1,1-4-4A4,4,0,0,1,277.23,28.51Z" style="fill: rgb(255, 255, 255); opacity: 0.8; transform-origin: 273.23px 28.51px;" class="animable"></path></g></g><g id="freepik--Bottle--inject-5" class="animable animator-active" style="transform-origin: 245.221px 265.69px;"><path d="M300.88,150,267.35,116V103.63h.74a2.19,2.19,0,0,0,2.18-1.75,2.09,2.09,0,0,0-2.07-2.45h-.85V89.23l-45.51.28v9.92h-.92a2.18,2.18,0,0,0-2.18,1.74,2.1,2.1,0,0,0,2.07,2.46h1v12l-32.79,36.58a20.14,20.14,0,0,0-5.13,13.42v8.55a10.92,10.92,0,0,0,3.19,7.71v159.7a7.68,7.68,0,0,0,.56,2.67,5.29,5.29,0,0,1-.26,4.23,8.55,8.55,0,0,0-1,3.8l-.52,46.23a27.22,27.22,0,0,0,.87,7.14l-.41,33a59.76,59.76,0,0,0,1.86,15.93c2.49,9.54,8.14,21.47,20.84,21.47h8.65a8.43,8.43,0,0,0,6.65-3.25l2-2.58a2.52,2.52,0,0,1,4.36.68h0a8.4,8.4,0,0,0,8,5.51l20.13-.31a4.88,4.88,0,0,0,4.45-3.49,2.52,2.52,0,0,1,4.5-.53l1.15,1.78a5.16,5.16,0,0,0,4.34,2.37h9.74a17,17,0,0,0,15-8.81c.06-.1.11-.2.16-.3a43.93,43.93,0,0,0,5.08-20.82V409.38a7,7,0,0,1,0-8V349.9a4.8,4.8,0,0,1-.19-6.57l.19-.22V180.64l.2-.2a10.88,10.88,0,0,0,3.2-7.71v-8.59A20.1,20.1,0,0,0,300.88,150Z" style="fill: rgb(245, 245, 245); transform-origin: 245.26px 282.825px;" id="elkycwpqj186p" class="animable"></path><path d="M285.46,155.65a11.21,11.21,0,0,1,13.79,10.63v8a10.13,10.13,0,0,1-2.83,7l-.18.18V329.7l-.17.2a4.49,4.49,0,0,0,.17,6v47a6.52,6.52,0,0,0,0,7.28v33.67a41.14,41.14,0,0,1-4.49,19l-.15.27a15,15,0,0,1-13.24,8h-8.62L257,451l-17.83.28L220.51,451h-7.67c-11.24,0-16.24-10.88-18.44-19.59a56.41,56.41,0,0,1-1.65-14.53l.36-30.14a25.38,25.38,0,0,1-.76-6.51L192.8,338a8,8,0,0,1,.88-3.48,5,5,0,0,0,.22-3.85,7.2,7.2,0,0,1-.49-2.42V182.57a10.08,10.08,0,0,1-2.83-7v-7.93a14.69,14.69,0,0,1,11.72-14.08c6.93-1.5,18-2.87,28.9,0,17.87,4.71,18.24,7.26,31,6.17A187,187,0,0,0,285.46,155.65Z" style="fill: rgb(64, 123, 255); transform-origin: 244.915px 301.581px;" id="elt4e59dng3mq" class="animable"></path><g id="elpco326b4m2l"><path d="M285.46,155.65a11.21,11.21,0,0,1,13.79,10.63v8a10.13,10.13,0,0,1-2.83,7l-.18.18V329.7l-.17.2a4.49,4.49,0,0,0,.17,6v47a6.52,6.52,0,0,0,0,7.28v33.67a41.14,41.14,0,0,1-4.49,19l-.15.27a15,15,0,0,1-13.24,8h-8.62L257,451l-17.83.28L220.51,451h-7.67c-11.24,0-16.24-10.88-18.44-19.59a56.41,56.41,0,0,1-1.65-14.53l.36-30.14a25.38,25.38,0,0,1-.76-6.51L192.8,338a8,8,0,0,1,.88-3.48,5,5,0,0,0,.22-3.85,7.2,7.2,0,0,1-.49-2.42V182.57a10.08,10.08,0,0,1-2.83-7v-7.93a14.69,14.69,0,0,1,11.72-14.08c6.93-1.5,18-2.87,28.9,0,17.87,4.71,18.24,7.26,31,6.17A187,187,0,0,0,285.46,155.65Z" style="fill: rgb(255, 255, 255); opacity: 0.5; transform-origin: 244.915px 301.581px;" class="animable"></path></g><path d="M304.46,181.79c0,.15-26.25.26-58.62.26s-58.62-.11-58.62-.26,26.24-.26,58.62-.26S304.46,181.65,304.46,181.79Z" style="fill: rgb(38, 50, 56); transform-origin: 245.84px 181.79px;" id="el5gwxpj9jdvw" class="animable"></path><path d="M193.66,250.34a44.66,44.66,0,0,1,29.61-23.9c12-2.84,25-.62,36.49-5.22,11.95-4.81,19.9-16.14,26.14-27.42,2.4-4.35,5.41-9.33,10.35-9.92-1.34,3.46.79,7.67-.95,11a11.44,11.44,0,0,1-2.47,2.83c-7.17,6.79-11.91,15.73-16,24.71-2.53,5.53-5,11.37-9.71,15.26a25.81,25.81,0,0,1-12,5.16c-11.1,2-23-.72-33.54,3.25-8.06,3-14.33,9.68-18.59,17.16s-6.72,15.81-9.15,24.07" style="fill: rgb(255, 255, 255); transform-origin: 244.955px 235.6px;" id="elgo5u936151r" class="animable"></path><path d="M299.39,169.63c0,.25-1.81.5-4.78,1.85a32.16,32.16,0,0,0-10.72,8.45,63.62,63.62,0,0,0-5.67,7.72c-1.88,2.91-3.78,6.14-6,9.47a54.44,54.44,0,0,1-8,9.82,36.25,36.25,0,0,1-25.11,9.84c-4.45-.06-8.53-.76-12.34-.78a40.44,40.44,0,0,0-19.46,5,40.87,40.87,0,0,0-6.53,4.36,47.28,47.28,0,0,0-4.38,4c-2.23,2.42-3.31,3.93-3.51,3.79s.09-.48.51-1.27a27.18,27.18,0,0,1,2.13-3.25,37.8,37.8,0,0,1,4.18-4.54,37.42,37.42,0,0,1,6.58-4.92,40.8,40.8,0,0,1,20.49-5.87c4.08,0,8.21.6,12.34.61a34.33,34.33,0,0,0,12.44-2.36,34,34,0,0,0,10.72-6.71,54.45,54.45,0,0,0,7.68-9.24c2.21-3.21,4.19-6.4,6.19-9.31a59.74,59.74,0,0,1,6.16-7.76,30,30,0,0,1,11.82-8.12C297.46,169.35,299.39,169.49,299.39,169.63Z" style="fill: rgb(255, 255, 255); transform-origin: 246.108px 201.347px;" id="eltuv0uxmawj7" class="animable"></path><path d="M193.21,384.42c4.19-4.23,10.79-5,16.7-4.27s11.69,2.56,17.64,2.58a29.1,29.1,0,0,0,21.77-9.85c2-2.31,3.64-4.93,5.62-7.28a32.52,32.52,0,0,1,19.44-11.06c3.37-.56,6.88-.59,10-1.87,6.47-2.62,9.82-9.63,12.57-16.05q-.64,15.7-1.28,31.4c-11.08-2.1-21.63,5.07-30.31,12.27S247.31,395.54,236,395.62c-6,0-11.89-2.27-17.9-2.06-11.32.39-20.27,9.3-27.94,17.63" style="fill: rgb(255, 255, 255); transform-origin: 243.555px 373.905px;" id="elue578kmb7o8" class="animable"></path><path d="M299.4,335.86c0,.25-1.71.34-4.63,1.07a33.38,33.38,0,0,0-5.16,1.81,42,42,0,0,0-6.31,3.55,68,68,0,0,0-6.95,5.44c-2.39,2.11-4.81,4.51-7.39,7.08s-5.31,5.26-8.38,7.86a51.73,51.73,0,0,1-10.37,7.07A35,35,0,0,1,238,373.25a76.72,76.72,0,0,1-11.59.16c-3.65-.17-7.08-.41-10.26-.43a52,52,0,0,0-8.76.59,33.16,33.16,0,0,0-7,1.81,25.73,25.73,0,0,0-4.82,2.49c-2.47,1.7-3.58,3-3.77,2.86s.69-1.67,3.08-3.76a22.6,22.6,0,0,1,4.86-3.08,32.06,32.06,0,0,1,7.24-2.35,50.67,50.67,0,0,1,9.12-1c3.28-.08,6.75.08,10.36.17a81.16,81.16,0,0,0,11.18-.31,32.87,32.87,0,0,0,11.2-3.29,50.16,50.16,0,0,0,9.83-6.64c3-2.48,5.72-5.11,8.35-7.6s5.17-4.91,7.69-7a64.11,64.11,0,0,1,7.42-5.35,39,39,0,0,1,6.8-3.32,27.52,27.52,0,0,1,5.55-1.41C297.67,335.4,299.41,335.71,299.4,335.86Z" style="fill: rgb(255, 255, 255); transform-origin: 245.588px 358.171px;" id="elebvcqufjedk" class="animable"></path><path d="M192.88,436.06c11.8,7.1,27.28,5.05,39.5-1.29s22-16.38,32.19-25.67,21.34-18.25,34.7-21.6a9.91,9.91,0,0,1-1.95-5.65c-15.41,6.78-31.21,13.83-43,25.83-4.08,4.15-7.63,8.85-12.19,12.46-4.36,3.46-9.48,5.8-14.65,7.84-10.45,4.12-21.71,7.18-32.83,5.66-.87-.12-1.9-.21-2.47.45s.42,2,1,1.35" style="fill: rgb(255, 255, 255); transform-origin: 245.64px 411.191px;" id="ela7kjvp4ul9a" class="animable"></path><path d="M280.33,325.4a3.1,3.1,0,1,1-3.1-3.1A3.09,3.09,0,0,1,280.33,325.4Z" style="fill: rgb(255, 255, 255); transform-origin: 277.23px 325.4px;" id="elumr6ip91zd" class="animable"></path><path d="M265.15,332a1.55,1.55,0,1,1-1.55-1.55A1.56,1.56,0,0,1,265.15,332Z" style="fill: rgb(255, 255, 255); transform-origin: 263.6px 332px;" id="el4jobl5ld79r" class="animable"></path><circle cx="230.12" cy="416.17" r="1.55" style="fill: rgb(255, 255, 255); transform-origin: 230.12px 416.17px;" id="elsgj4mkpmcf" class="animable"></circle><path d="M303.27,350.51c0,.15-26.27.26-58.67.26s-58.69-.11-58.69-.26,26.27-.26,58.69-.26S303.27,350.37,303.27,350.51Z" style="fill: rgb(38, 50, 56); transform-origin: 244.59px 350.51px;" id="elud5oqxwtj8q" class="animable"></path><path d="M303,402.24c0,.14-26.22.26-58.56.26s-58.57-.12-58.57-.26,26.22-.27,58.57-.27S303,402.09,303,402.24Z" style="fill: rgb(38, 50, 56); transform-origin: 244.435px 402.235px;" id="els70mnais42" class="animable"></path><path d="M303.69,409.89c0,.14-26.22.26-58.56.26s-58.56-.12-58.56-.26,26.21-.26,58.56-.26S303.69,409.75,303.69,409.89Z" style="fill: rgb(38, 50, 56); transform-origin: 245.13px 409.89px;" id="el27yihnxxkvx" class="animable"></path><path d="M303.27,342.56c0,.15-25.94.26-57.93.26s-58-.11-58-.26,25.94-.26,58-.26S303.27,342.42,303.27,342.56Z" style="fill: rgb(38, 50, 56); transform-origin: 245.305px 342.56px;" id="ellg2vn8pauc" class="animable"></path><path d="M236.59,476.11a2.24,2.24,0,0,1-.87-.26,7.12,7.12,0,0,1-2-1.42c-1.56-1.46-2.91-4.05-4.44-6.78s-2.9-5.26-3.87-7.09a22.85,22.85,0,0,1-1.47-3,19.6,19.6,0,0,1,1.79,2.83c1.05,1.78,2.47,4.25,4,7s2.82,5.31,4.25,6.77A10.07,10.07,0,0,0,236.59,476.11Z" style="fill: rgb(38, 50, 56); transform-origin: 230.265px 466.835px;" id="elj7j3us2g1g" class="animable"></path><path d="M269.27,457.3a9.81,9.81,0,0,1-.54,2.24c-.41,1.37-1,3.23-1.81,5.26s-1.57,3.83-2.18,5.12a8.87,8.87,0,0,1-1.11,2,12.05,12.05,0,0,1,.77-2.18l2-5.15c.73-1.93,1.38-3.68,1.95-5.19A10.61,10.61,0,0,1,269.27,457.3Z" style="fill: rgb(38, 50, 56); transform-origin: 266.45px 464.61px;" id="elay7ji0lpnwl" class="animable"></path><path d="M303,421.71s-.08.09-.25.23l-.77.62c-.67.55-1.69,1.34-3,2.34a134.86,134.86,0,0,1-11.6,7.85c-2.54,1.51-5.38,3.09-8.54,4.57a60.14,60.14,0,0,1-10.42,3.87,52.85,52.85,0,0,1-25.29.62,40.69,40.69,0,0,1-12.2-5,71.94,71.94,0,0,1-9.77-7.46c-2.94-2.58-5.66-5.1-8.33-7.32a59.25,59.25,0,0,0-7.8-5.64,32.15,32.15,0,0,0-13-4.67,25.22,25.22,0,0,0-3.79-.07l-1,.07a1.24,1.24,0,0,1-.34,0,1.29,1.29,0,0,1,.33-.06l1-.13a22.21,22.21,0,0,1,3.82,0,31.66,31.66,0,0,1,13.18,4.56,58.67,58.67,0,0,1,7.89,5.62c2.68,2.22,5.42,4.73,8.37,7.29a73.6,73.6,0,0,0,9.72,7.39,40.29,40.29,0,0,0,12.05,4.93,52.53,52.53,0,0,0,25-.58,60,60,0,0,0,10.36-3.79c3.15-1.46,6-3,8.53-4.5,5.09-3,9-5.77,11.67-7.69l3.07-2.26.8-.58Z" style="fill: rgb(38, 50, 56); transform-origin: 244.95px 427.25px;" id="elbrg7hj9vrov" class="animable"></path><path d="M303.27,420.53s-.07.09-.24.24l-.73.64-1.22,1-1.72,1.32a89,89,0,0,1-11.68,7.37c-2.58,1.37-5.48,2.75-8.66,4.05a61.4,61.4,0,0,1-10.46,3.31c-.95.18-1.91.4-2.9.49-.5,0-1,.13-1.5.16l-1.52.05c-2,0-4.08-.1-6.18-.22a61.57,61.57,0,0,1-12.87-2A32.78,32.78,0,0,1,232,431.2a102.33,102.33,0,0,1-8.78-8.36,47.82,47.82,0,0,0-8.28-7,35.25,35.25,0,0,0-8.56-4,36.89,36.89,0,0,0-13.57-1.67c-.81,0-1.53.11-2.15.2s-1.15.14-1.57.22l-1,.16a1.16,1.16,0,0,1-.33,0,27.25,27.25,0,0,1,5-.82,36.11,36.11,0,0,1,13.7,1.52,35.47,35.47,0,0,1,8.68,4,47.66,47.66,0,0,1,8.39,7.07,102.59,102.59,0,0,0,8.75,8.3,32.38,32.38,0,0,0,11.47,5.68,62.23,62.23,0,0,0,12.76,2c2.08.12,4.15.21,6.15.23l1.49-.05c.49,0,1-.1,1.47-.15,1-.08,1.92-.3,2.86-.47a60.66,60.66,0,0,0,10.4-3.24c3.17-1.28,6.06-2.63,8.64-4a95.44,95.44,0,0,0,11.74-7.21l1.75-1.29,1.24-1,.77-.6Z" style="fill: rgb(38, 50, 56); transform-origin: 245.515px 424.485px;" id="elx1t6rshxyoc" class="animable"></path><path d="M303.21,181.25c0,.15-25.93.26-57.92.26s-57.91-.11-57.91-.26,25.92-.26,57.91-.26S303.21,181.11,303.21,181.25Z" style="fill: rgb(38, 50, 56); transform-origin: 245.295px 181.25px;" id="elvikqpm5bfu" class="animable"></path><path d="M286,134.73a10.25,10.25,0,0,1-.91.6,27.17,27.17,0,0,0-2.47,1.88c-1,.87-2.25,2-3.71,3.26a35.2,35.2,0,0,1-5.38,3.76,43.22,43.22,0,0,1-16.23,5.05,71.85,71.85,0,0,1-20.82-1c-3.65-.64-7.17-1.5-10.57-2.18a53,53,0,0,0-9.93-1.17,48,48,0,0,0-16.65,2.65,34.83,34.83,0,0,0-10.14,5.15,13,13,0,0,0-2.16,2.22c-.42.57-.6.9-.62.89a5.42,5.42,0,0,1,.54-.95,11.55,11.55,0,0,1,2.11-2.32c2.06-1.79,5.59-3.67,10.15-5.34A48,48,0,0,1,216,144.43a52,52,0,0,1,10,1.15c3.43.68,6.94,1.53,10.57,2.16a72.46,72.46,0,0,0,20.68,1.07,43.2,43.2,0,0,0,16.1-4.91c4.26-2.3,7-5.16,9.14-6.84a21.47,21.47,0,0,1,2.55-1.82c.3-.18.54-.31.71-.39Z" style="fill: rgb(38, 50, 56); transform-origin: 236.205px 145.285px;" id="el73qro7rr2dl" class="animable"></path><path d="M284.22,132.58l-.15.22c-.12.17-.28.37-.47.62-.42.54-1,1.32-1.89,2.3a39.57,39.57,0,0,1-8.17,7.29,30.29,30.29,0,0,1-15.48,4.59,53.79,53.79,0,0,1-19.56-3.33c-3.35-1.14-6.57-2.35-9.75-3.27a36.13,36.13,0,0,0-9.35-1.61,32.23,32.23,0,0,0-8.52,1.06,61.92,61.92,0,0,0-7.19,2.24,65.15,65.15,0,0,0-9.85,4.67,12.05,12.05,0,0,0-2.42,1.7c-.48.46-.68.77-.7.75a3.83,3.83,0,0,1,.63-.83,11.62,11.62,0,0,1,2.38-1.8,62.25,62.25,0,0,1,9.83-4.84,63.24,63.24,0,0,1,7.21-2.31,32.89,32.89,0,0,1,8.64-1.12,36.49,36.49,0,0,1,9.48,1.6c3.21.92,6.44,2.14,9.77,3.27a54.15,54.15,0,0,0,19.39,3.34,30.07,30.07,0,0,0,15.29-4.42,40.67,40.67,0,0,0,8.22-7.12c.87-1,1.52-1.71,2-2.22l.51-.59A1.32,1.32,0,0,1,284.22,132.58Z" style="fill: rgb(38, 50, 56); transform-origin: 237.47px 141.195px;" id="elqa4to7nnk" class="animable"></path><path d="M300.88,150a16.23,16.23,0,0,1,1.44,1.59,20,20,0,0,1,4.25,10,49,49,0,0,1,.17,5.68v3.2c0,1.11.06,2.26-.06,3.45a11.1,11.1,0,0,1-3.34,6.72l0-.07c0,32.93.06,89.73.11,162.47v.09l-.05.05a4.62,4.62,0,0,0,0,6.5l.07.06v.09c0,16.33,0,33.57,0,51.49v.08l0,0a6.76,6.76,0,0,0,0,7.72l.05.06v32.12c0,2.74.09,5.49-.12,8.27A44.91,44.91,0,0,1,302,458a42.24,42.24,0,0,1-2.93,7.93,22.87,22.87,0,0,1-2.17,3.69,16.67,16.67,0,0,1-3,3.1,17.4,17.4,0,0,1-7.86,3.53,23.6,23.6,0,0,1-4.35.27H273a5.46,5.46,0,0,1-3.94-2.09c-.46-.63-.81-1.23-1.22-1.85a3.79,3.79,0,0,0-.63-.81,2.43,2.43,0,0,0-.87-.46,2.29,2.29,0,0,0-1.9.32,2.08,2.08,0,0,0-.66.72c-.16.27-.26.64-.44,1a5.18,5.18,0,0,1-3.42,2.93,10.31,10.31,0,0,1-2.26.15l-2.23,0-8.95.14-4.5.07-2.26,0a13.58,13.58,0,0,1-2.29-.07,8.63,8.63,0,0,1-6.93-5.59l.24.16-.25-.16a2.25,2.25,0,0,0-3.71-.82c-.51.59-1,1.31-1.55,2a14.66,14.66,0,0,1-1.69,1.95,8.71,8.71,0,0,1-4.7,2.16,25.19,25.19,0,0,1-2.59.07h-2.57c-1.71,0-3.42,0-5.15,0a16.36,16.36,0,0,1-2.6-.26l-1.29-.24c-.42-.11-.83-.26-1.25-.39a18.26,18.26,0,0,1-8.48-6,33.39,33.39,0,0,1-5.15-9.17A56.15,56.15,0,0,1,187,450a61.87,61.87,0,0,1-.87-10.62c0-3.55.09-7.12.13-10.69.1-7.75.19-15.46.29-23.06v.07a27.78,27.78,0,0,1-.87-7.69q0-3.84.08-7.66c.06-5.09.12-10.17.17-15.21s.12-10.07.17-15.07q0-3.75.08-7.47a8.8,8.8,0,0,1,.77-3.72,7.55,7.55,0,0,0,.67-1.68,4.91,4.91,0,0,0,.1-1.75,7.45,7.45,0,0,0-.48-1.74,7.37,7.37,0,0,1-.36-1.87v-3.71c0-2.45,0-4.91,0-7.35V287.59c0-37.61,0-73.11,0-105.75l.06.16a11.19,11.19,0,0,1-3.25-7.55v-8.12a21.84,21.84,0,0,1,.53-5.35,20.56,20.56,0,0,1,4.92-9.25q3.47-3.85,6.84-7.63Q209.52,129,221.7,115.45l0,.12c0-4.3,0-8.16,0-11.94l.18.18c-.4,0-.77,0-1.17,0a2.2,2.2,0,0,1-1.15-.39,2.28,2.28,0,0,1-1-2,2.24,2.24,0,0,1,1.21-1.83,2.67,2.67,0,0,1,1.07-.29h1l-.18.18c0-3.63,0-6.8,0-9.92v-.17h.17l45.51-.24h.14v.14c0,4,0,7.14,0,10.2l-.13-.13a9.83,9.83,0,0,1,1.21,0,2.16,2.16,0,0,1,1.08.5,2.22,2.22,0,0,1,.76,2,2.18,2.18,0,0,1-1.17,1.63,2.42,2.42,0,0,1-1,.27c-.33,0-.62,0-.93,0l.12-.12c0,5,0,8.75,0,12.34l0-.07,24.92,25.37,6.38,6.53c1.44,1.46,2.15,2.22,2.15,2.22l-2.19-2.18-6.43-6.49-25-25.3,0,0v0c0-3.59,0-7.39,0-12.34v-.13h.13a3.35,3.35,0,0,0,1.76-.25,1.94,1.94,0,0,0,.37-3.22,1.89,1.89,0,0,0-1-.44,8.91,8.91,0,0,0-1.17,0h-.13v-.13c0-3.06,0-6.23,0-10.2l.14.14-45.51.31.17-.17c0,3.12,0,6.29,0,9.92v.17h-.18a3.84,3.84,0,0,0-1.93.25,1.88,1.88,0,0,0-1,1.53,1.9,1.9,0,0,0,.83,1.72,3.42,3.42,0,0,0,2.11.33H222v.18c0,3.78,0,7.64,0,11.94v.08l-.05,0L196.3,144.38,189.47,152a20.12,20.12,0,0,0-4.82,9.07,21.37,21.37,0,0,0-.52,5.25c0,1.79,0,3.59,0,5.39a18.07,18.07,0,0,0,.42,5.36,10.68,10.68,0,0,0,2.71,4.6l.06.07v.09c0,32.64,0,68.14,0,105.75v28.6q0,7.24,0,14.57v11a7,7,0,0,0,.34,1.75,8.46,8.46,0,0,1,.5,1.83,5.45,5.45,0,0,1-.11,1.93,8.16,8.16,0,0,1-.7,1.77,8.12,8.12,0,0,0-.72,3.51q0,3.74-.08,7.48c-.06,5-.11,10-.17,15.06s-.11,10.12-.17,15.21c0,2.55,0,5.1-.08,7.66a27.36,27.36,0,0,0,.85,7.55v.07c-.1,7.6-.19,15.32-.29,23.07,0,3.57-.09,7.13-.13,10.68a61.67,61.67,0,0,0,.87,10.53A55.61,55.61,0,0,0,190.23,460a33.12,33.12,0,0,0,5.07,9,17.78,17.78,0,0,0,8.24,5.85c3.24,1.14,6.72.85,10.13.89h2.57a21,21,0,0,0,2.52-.07,8.18,8.18,0,0,0,4.42-2,13.59,13.59,0,0,0,1.63-1.89c.54-.67,1-1.32,1.59-2a2.76,2.76,0,0,1,2.56-.74,2.8,2.8,0,0,1,2,1.75l-.24-.17.24.17a8.14,8.14,0,0,0,6.52,5.27,14.69,14.69,0,0,0,2.21.06l2.26,0,4.5-.07,8.95-.14,2.23,0a10.15,10.15,0,0,0,2.16-.14,4.71,4.71,0,0,0,3.08-2.65c.15-.31.24-.66.45-1a2.59,2.59,0,0,1,.82-.89,2.82,2.82,0,0,1,2.31-.39,2.91,2.91,0,0,1,1.07.57,4.3,4.3,0,0,1,.72.91c.4.61.79,1.27,1.2,1.82A4.92,4.92,0,0,0,273,476h8.69a22.33,22.33,0,0,0,4.26-.26,16.76,16.76,0,0,0,7.64-3.43,16,16,0,0,0,2.92-3,22.61,22.61,0,0,0,2.13-3.62,42,42,0,0,0,2.9-7.84,44.51,44.51,0,0,0,1.35-8.17c.21-2.74.09-5.49.12-8.23,0-10.93,0-21.63,0-32l0,.13a7.21,7.21,0,0,1,0-8.25l0,.13c0-17.92,0-35.16,0-51.49l.06.15a5,5,0,0,1,0-7.08l-.05.14c.05-72.74.09-129.54.11-162.47v0l0,0a10.88,10.88,0,0,0,3.3-6.61c.13-1.17.06-2.32.08-3.43s0-2.17,0-3.2a48.69,48.69,0,0,0-.15-5.66,19.24,19.24,0,0,0-1.1-4.54,20.13,20.13,0,0,0-3.07-5.5c-.44-.55-.79-1-1-1.22Z" style="fill: rgb(38, 50, 56); transform-origin: 245.221px 282.905px;" id="eloyggceuxwpl" class="animable"></path><path d="M267.47,99.19c0,.14-10.21.31-22.81.38s-22.82,0-22.82-.14,10.21-.32,22.82-.38S267.47,99.05,267.47,99.19Z" style="fill: rgb(38, 50, 56); transform-origin: 244.655px 99.3121px;" id="el07n4z9ft0ttq" class="animable"></path><path d="M268.64,103.64c0,.14-10.45.26-23.35.26s-23.35-.12-23.35-.26,10.46-.26,23.35-.26S268.64,103.49,268.64,103.64Z" style="fill: rgb(38, 50, 56); transform-origin: 245.29px 103.64px;" id="elon2g9zlcb8" class="animable"></path><path d="M267.35,107.25c0,.15-10.17.26-22.7.26s-22.71-.11-22.71-.26,10.17-.26,22.71-.26S267.35,107.11,267.35,107.25Z" style="fill: rgb(38, 50, 56); transform-origin: 244.645px 107.25px;" id="elrpmn5a4xgu" class="animable"></path><path d="M267.35,110.87c0,.14-10.17.26-22.7.26s-22.71-.12-22.71-.26,10.17-.26,22.71-.26S267.35,110.73,267.35,110.87Z" style="fill: rgb(38, 50, 56); transform-origin: 244.645px 110.87px;" id="elyktcpg09l1m" class="animable"></path><path d="M221.94,103.73a5.42,5.42,0,0,0,3.23,2.37,15.78,15.78,0,0,0,4.06.48,270.56,270.56,0,0,0,35.55-1.41c1-.1,2.14-.38,2.37-1.32-1.91-.08-3.82-.09-5.73-.09-11.32,0-22.65,0-34,.11l-6.23,0" style="fill: rgb(224, 224, 224); transform-origin: 244.17px 105.201px;" id="elw6t6fjs2yw" class="animable"></path><path d="M214.05,96.26V61.72s-.35-7,31-7c28.52,0,28.44,8.06,28.44,8.06V96.26Z" style="fill: rgb(64, 123, 255); transform-origin: 243.77px 75.49px;" id="el540t8dk40lo" class="animable"></path><path d="M217.93,89.42c-.14,0-.26-6-.26-13.3s.12-13.3.26-13.3.26,5.95.26,13.3S218.07,89.42,217.93,89.42Z" style="fill: rgb(38, 50, 56); transform-origin: 217.93px 76.12px;" id="elj5e7d45kiap" class="animable"></path><path d="M223.24,89.42c-.15,0-.26-6.28-.26-14s.11-14,.26-14,.26,6.28.26,14S223.38,89.42,223.24,89.42Z" style="fill: rgb(38, 50, 56); transform-origin: 223.24px 75.42px;" id="elsk0mrh5pgqo" class="animable"></path><path d="M228.35,89.42c-.14,0-.26-6.52-.26-14.56s.12-14.57.26-14.57.26,6.52.26,14.57S228.5,89.42,228.35,89.42Z" style="fill: rgb(38, 50, 56); transform-origin: 228.35px 74.855px;" id="eld7ehqeni5b" class="animable"></path><path d="M233.47,89.42c-.15,0-.26-6.68-.26-14.91s.11-14.92.26-14.92.26,6.68.26,14.92S233.61,89.42,233.47,89.42Z" style="fill: rgb(38, 50, 56); transform-origin: 233.47px 74.505px;" id="elebyxsr2ocxo" class="animable"></path><path d="M238.58,89.42c-.14,0-.26-6.68-.26-14.91s.12-14.92.26-14.92.26,6.68.26,14.92S238.73,89.42,238.58,89.42Z" style="fill: rgb(38, 50, 56); transform-origin: 238.58px 74.505px;" id="elulscw2b951i" class="animable"></path><path d="M243.7,89.42c-.14,0-.26-6.68-.26-14.91s.12-14.92.26-14.92.26,6.68.26,14.92S243.84,89.42,243.7,89.42Z" style="fill: rgb(38, 50, 56); transform-origin: 243.7px 74.505px;" id="el19y7pig3vj2" class="animable"></path><path d="M248.82,89.42c-.15,0-.26-6.68-.26-14.91s.11-14.92.26-14.92.26,6.68.26,14.92S249,89.42,248.82,89.42Z" style="fill: rgb(38, 50, 56); transform-origin: 248.82px 74.505px;" id="elntp9melu72f" class="animable"></path><path d="M253.93,89.42c-.14,0-.26-6.68-.26-14.91s.12-14.92.26-14.92.26,6.68.26,14.92S254.08,89.42,253.93,89.42Z" style="fill: rgb(38, 50, 56); transform-origin: 253.93px 74.505px;" id="elp8lucn3b34i" class="animable"></path><path d="M259.05,89.42c-.15,0-.26-6.44-.26-14.39s.11-14.4.26-14.4.26,6.44.26,14.4S259.19,89.42,259.05,89.42Z" style="fill: rgb(38, 50, 56); transform-origin: 259.05px 75.025px;" id="el4ceif7ukxfs" class="animable"></path><path d="M264.16,89.42c-.14,0-.26-6.18-.26-13.8s.12-13.81.26-13.81.26,6.18.26,13.81S264.31,89.42,264.16,89.42Z" style="fill: rgb(38, 50, 56); transform-origin: 264.16px 75.615px;" id="elp80corai1so" class="animable"></path><path d="M269.28,89.42c-.14,0-.26-5.84-.26-13s.12-13,.26-13,.26,5.83.26,13S269.42,89.42,269.28,89.42Z" style="fill: rgb(38, 50, 56); transform-origin: 269.28px 76.42px;" id="elmw79yzdz9lh" class="animable"></path><path d="M271.37,64.08a2.28,2.28,0,0,1-.57-.14l-1.59-.49c-.69-.23-1.54-.5-2.53-.76s-2.11-.62-3.38-.9-2.64-.63-4.13-.9-3.1-.54-4.8-.8A85.26,85.26,0,0,0,232.18,60c-1.7.24-3.31.44-4.8.74s-2.89.56-4.15.86-2.39.59-3.39.85-1.84.51-2.53.73l-1.6.48a2.38,2.38,0,0,1-.58.13,2.23,2.23,0,0,1,.54-.23l1.57-.57c.69-.25,1.53-.54,2.52-.82s2.12-.65,3.38-.93,2.65-.65,4.16-.92,3.12-.54,4.82-.8a89.76,89.76,0,0,1,11.16-.7,88.51,88.51,0,0,1,11.16.84c1.7.27,3.32.51,4.81.85s2.88.64,4.14,1,2.38.67,3.37,1,1.83.59,2.51.85l1.57.58A2.21,2.21,0,0,1,271.37,64.08Z" style="fill: rgb(38, 50, 56); transform-origin: 243.25px 61.45px;" id="elwwtnoqlvg6f" class="animable"></path><path d="M271.71,89.51c0,.14-12.4.26-27.69.26s-27.68-.12-27.68-.26,12.39-.26,27.68-.26S271.71,89.36,271.71,89.51Z" style="fill: rgb(38, 50, 56); transform-origin: 244.025px 89.51px;" id="elkphx34erj2" class="animable"></path><rect x="187.06" y="230.73" width="116.22" height="82.57" style="fill: rgb(64, 123, 255); transform-origin: 245.17px 272.015px;" id="eli54r3fw8sz" class="animable"></rect><g id="ely1nsyj00y08"><g style="opacity: 0.3; transform-origin: 248.355px 272.059px;" class="animable"><polygon points="210.1 286.3 210.66 286.3 210.47 285.71 210.1 286.3" id="elnymxwt2e60s" class="animable" style="transform-origin: 210.38px 286.005px;"></polygon><path d="M273,268.46l-5.58,8.25-19.08-36.12L232,270.4l-5.63-10.24L212,283.29h3.27l.93,3h2.21l1-3h4.77l.92,3h2.23l1-3h5.18l-1,3h3.64l1.34-3h5l1.34,3h2.81v-3h13.17v3H260v-3h11.7v3h1.1v-3h6.86c2.87,0,5,1.13,5.95,3h1Zm-46.35,1.92-3.13,3.71v-3.71l-6.66,7.42,8.91-14.36,5,9.1Zm7.37,11.5,0-3-1.44,2.41h-1L230.16,279v2.91h-2v-6.61H230l2.15,3.52,2.1-3.52h1.83l0,6.61Zm5.17,0h-2.14v-5.17h2.14Zm-1.07-5.58a1.1,1.1,0,1,1,0-2.18c.79,0,1.29.44,1.29,1.05A1.16,1.16,0,0,1,238.14,276.3Zm7.72,5.58h-2.14V279.3c0-.64-.24-.89-.63-.89s-.8.28-.8,1v2.43h-2.14v-5.17h2v.51a2.19,2.19,0,0,1,1.56-.6,2,2,0,0,1,2.12,2.31Zm-7.08-20.63,9.58-17.41,7,13.23-4.92-4.18-3.69,4.68V253.9Zm13.56,18.54h-3.59a1,1,0,0,0,1,.61,1.62,1.62,0,0,0,1.08-.38l1.11,1.12a2.85,2.85,0,0,1-2.25.83c-1.9,0-3.13-1.14-3.13-2.68a2.72,2.72,0,0,1,2.93-2.67,2.62,2.62,0,0,1,2.84,2.67C252.37,279.44,252.35,279.64,252.34,279.79Zm4.4-1.28a2.79,2.79,0,0,0-.47,0,1,1,0,0,0-1.1,1.11v2.3H253v-5.17h2v.56a2.1,2.1,0,0,1,1.67-.65Zm5.67,3.37h-2v-.68A1.45,1.45,0,0,1,259,282c-1.27,0-1.92-.71-1.92-1.6s.76-1.56,2.36-1.56h.86c-.07-.4-.37-.61-1-.61a2.35,2.35,0,0,0-1.32.41l-.68-1.41a4.75,4.75,0,0,1,2.32-.58c1.78,0,2.8.76,2.8,2.48Zm3,0h-2.13v-7h2.13Zm8.62-7.37v3.54l-2.5-2.23h-1.84L273,271l5.39,7.07Z" id="elvfhofssswc" class="animable" style="transform-origin: 249.305px 263.44px;"></path><path d="M249.55,278.07a.81.81,0,0,0-.84.69h1.67A.81.81,0,0,0,249.55,278.07Z" id="elw9knf1vckc8" class="animable" style="transform-origin: 249.545px 278.415px;"></path><path d="M259.09,280.27c0,.24.19.42.51.42a.67.67,0,0,0,.67-.49v-.36h-.53C259.29,279.84,259.09,280,259.09,280.27Z" id="el4kbktbboipf" class="animable" style="transform-origin: 259.68px 280.265px;"></path><path d="M285.32,288.7c0-2.79-2.15-4.53-5.62-4.53h-6v8.92l-.31,0a38.56,38.56,0,0,0-9-.08v-1.58h5.63v-2.32h-5.63v-2.42h6.41v-2.47h-9.94v9.27c-1.94.33-3.92.78-5.94,1.3v-8h3.9v-2.56H247.47v2.56h3.9v9c-1.57.45-3.16.93-4.76,1.4a90.17,90.17,0,0,1-14.11,3.34,37.69,37.69,0,0,1-11.6-.23c-6.56-1.23-9.8-4.24-10.11-3.81-.12.13.5,1.05,2.06,2.28a21.57,21.57,0,0,0,7.56,3.64,35,35,0,0,0,12.4.93,77,77,0,0,0,14.67-3.21c5-1.5,9.75-3,14.09-3.88a46,46,0,0,1,11.64-1c6.69.35,10.42,2.62,10.66,2.16.06-.11-.3-.51-1.1-1.06l.31.15h2.13l-2.61-3.78.45-.23A4,4,0,0,0,285.32,288.7Zm-8-2h2.08c1.42,0,2.27.74,2.27,2s-.85,2-2.27,2h-2.08Zm0,6.43h1.89l1.3,1.89a22.19,22.19,0,0,0-3.19-1.16Z" id="el5ud922mj1hm" class="animable" style="transform-origin: 248.05px 293.849px;"></path><path d="M242.74,294.16l.9,2.29h3.66l-5.43-12.28H238l-5.43,12.28h3.59l.89-2.29Zm-2.83-7.28,1.94,5H238Z" id="elkbz8yxxuuxc" class="animable" style="transform-origin: 239.935px 290.31px;"></path><polygon points="221.64 288.39 224.1 296.45 228.27 296.45 232.24 284.17 228.91 284.17 226.12 292.78 223.49 284.17 220 284.17 217.22 292.67 214.59 284.17 210.9 284.17 214.87 296.45 219.04 296.45 221.64 288.39" id="elqpwqnm2fjkk" class="animable" style="transform-origin: 221.57px 290.31px;"></polygon></g></g><path d="M195,307.29c-.14,0-.26-14.74-.26-32.92s.12-32.93.26-32.93.26,14.74.26,32.93S195.15,307.29,195,307.29Z" style="fill: rgb(255, 255, 255); transform-origin: 195px 274.365px;" id="el2j7kz0ceeb8" class="animable"></path></g><g id="freepik--front-water--inject-5" class="animable" style="transform-origin: 236.4px 214.188px;"><path d="M311.76,251.39c-9-4.52-20.77,5.92-29.29.6a17.33,17.33,0,0,1-5-5.71c-2.4-3.78-4.66-7.75-8-10.78s-7.93-5-12.28-3.94-7.62,5.15-11.93,6.74c-6,2.2-12.78-.87-17.25-5.42s-7.29-10.41-10.92-15.66-8.56-10.17-14.85-11.2c-1.31-.21-2.76-.3-3.69-1.24a5.14,5.14,0,0,1-1.14-2.75,68.87,68.87,0,0,1-1.13-14.83c.11-3.68.51-7.42-.38-11s-3.45-7-7.07-7.69-7.83,1.29-10.46-1.17a9.36,9.36,0,0,1-2-3.73c-1.9-4.9-5.81-9.46-11-10.27s-11.05,3.78-10.05,8.94a2.58,2.58,0,0,0,1.09,1.83,2.92,2.92,0,0,0,2.33-.07c2.22-.75,4.39-1.93,6.79-1.54a3.77,3.77,0,0,1,3,2.33c.74,2.15-1.18,3.87-3.13,4.16a6,6,0,0,1-1.4,0,5.86,5.86,0,0,0-6.53,6.31l.06.39a4.76,4.76,0,0,0,.81,2c7.14,10.38,12.42-6.21,20.37,13.45a3.79,3.79,0,0,1,.14,2.61c-.84,2.58-2.67,4.71-4,7.06s-2.34,5.46-1.08,8,4.4,3.83,4.93,6.55c.35,1.85-.66,3.66-.93,5.51-.4,2.69.78,5.38,2.36,7.59a22,22,0,0,0,16.32,9.07c1.8.11,3.68,0,5.33.76,2.09.94,3.38,3,4.5,5,5,8.76,10.5,18.79,20.3,21.11,13,3.09,26.65-9.39,39.17-4.64,4,1.52,7.16,4.62,10.58,7.19s7.63,4.74,11.83,3.92c6.43-1.23,11.64-9.07,17.76-6.74,4.33,1.65,4.77,8.87.67,11,5.86-2.11,10.87-7.26,11-13.76A11,11,0,0,0,311.76,251.39Z" style="fill: rgb(64, 123, 255); transform-origin: 236.4px 214.188px;" id="elwp9930aj9cj" class="animable"></path><g id="elra8lerx6q4a"><g style="opacity: 0.8; transform-origin: 236.4px 214.188px;" class="animable"><path d="M311.76,251.39c-9-4.52-20.77,5.92-29.29.6a17.33,17.33,0,0,1-5-5.71c-2.4-3.78-4.66-7.75-8-10.78s-7.93-5-12.28-3.94-7.62,5.15-11.93,6.74c-6,2.2-12.78-.87-17.25-5.42s-7.29-10.41-10.92-15.66-8.56-10.17-14.85-11.2c-1.31-.21-2.76-.3-3.69-1.24a5.14,5.14,0,0,1-1.14-2.75,68.87,68.87,0,0,1-1.13-14.83c.11-3.68.51-7.42-.38-11s-3.45-7-7.07-7.69-7.83,1.29-10.46-1.17a9.36,9.36,0,0,1-2-3.73c-1.9-4.9-5.81-9.46-11-10.27s-11.05,3.78-10.05,8.94a2.58,2.58,0,0,0,1.09,1.83,2.92,2.92,0,0,0,2.33-.07c2.22-.75,4.39-1.93,6.79-1.54a3.77,3.77,0,0,1,3,2.33c.74,2.15-1.18,3.87-3.13,4.16a6,6,0,0,1-1.4,0,5.86,5.86,0,0,0-6.53,6.31l.06.39a4.76,4.76,0,0,0,.81,2c7.14,10.38,12.42-6.21,20.37,13.45a3.79,3.79,0,0,1,.14,2.61c-.84,2.58-2.67,4.71-4,7.06s-2.34,5.46-1.08,8,4.4,3.83,4.93,6.55c.35,1.85-.66,3.66-.93,5.51-.4,2.69.78,5.38,2.36,7.59a22,22,0,0,0,16.32,9.07c1.8.11,3.68,0,5.33.76,2.09.94,3.38,3,4.5,5,5,8.76,10.5,18.79,20.3,21.11,13,3.09,26.65-9.39,39.17-4.64,4,1.52,7.16,4.62,10.58,7.19s7.63,4.74,11.83,3.92c6.43-1.23,11.64-9.07,17.76-6.74,4.33,1.65,4.77,8.87.67,11,5.86-2.11,10.87-7.26,11-13.76A11,11,0,0,0,311.76,251.39Z" style="fill: rgb(255, 255, 255); transform-origin: 236.4px 214.188px;" id="elkn3wrly3csc" class="animable"></path></g></g><path d="M240.34,258.47a6.12,6.12,0,0,1-.67.28c-.45.18-1.11.42-2,.71a32.36,32.36,0,0,1-7.5,1.72,15.71,15.71,0,0,1-5.32-.43,10.71,10.71,0,0,1-2.75-1.19,13.79,13.79,0,0,1-2.56-1.88c-3.16-3.09-5-7.62-6.9-12.12a42.27,42.27,0,0,0-3.29-6.36,14.59,14.59,0,0,0-4.62-4.66,17.11,17.11,0,0,0-5.6-2.07c-1.85-.42-3.61-.72-5.18-1.14a13.28,13.28,0,0,1-6.67-3.75,7.31,7.31,0,0,1-1.13-1.77,2.78,2.78,0,0,1-.23-.69,9.26,9.26,0,0,0,1.51,2.33,13.34,13.34,0,0,0,6.61,3.52c1.56.4,3.31.68,5.18,1.07a17.63,17.63,0,0,1,5.76,2.09,14.9,14.9,0,0,1,4.79,4.79,41.18,41.18,0,0,1,3.34,6.44c2,4.51,3.73,9,6.76,12a12.93,12.93,0,0,0,2.46,1.84,10.26,10.26,0,0,0,2.64,1.16,15.15,15.15,0,0,0,5.18.48,34.37,34.37,0,0,0,7.46-1.54l2-.61A2.88,2.88,0,0,1,240.34,258.47Z" style="fill: rgb(255, 255, 255); transform-origin: 213.13px 243.182px;" id="el1jpehxozlyu" class="animable"></path><path d="M249.46,256.94a9.71,9.71,0,0,1-3.11.5,9.88,9.88,0,0,1-3.15,0,9.32,9.32,0,0,1,3.11-.5A9.88,9.88,0,0,1,249.46,256.94Z" style="fill: rgb(255, 255, 255); transform-origin: 246.33px 257.19px;" id="el0215afylncbz" class="animable"></path><path d="M177.26,203.9a9,9,0,0,0,.08,2.75,9.21,9.21,0,0,0,1.32,2.42c0,.05-.35-.07-.76-.45a3.94,3.94,0,0,1-1.06-1.83,4,4,0,0,1,0-2.12C177,204.15,177.2,203.88,177.26,203.9Z" style="fill: rgb(255, 255, 255); transform-origin: 177.679px 206.49px;" id="elxhc3nipsblc" class="animable"></path><path d="M165,172.07a7.82,7.82,0,0,1-.15.9,4.88,4.88,0,0,0,.35,2.37,4.66,4.66,0,0,0,2.4,2.48c1.23.53,2.76.29,4.36.09a8.85,8.85,0,0,1,2.41,0,5.43,5.43,0,0,1,2.12.82,8.57,8.57,0,0,1,2.53,2.8,17,17,0,0,1,1.12,2.26,2.84,2.84,0,0,1,.29.87c-.08.05-.6-1.17-1.72-2.93a8.61,8.61,0,0,0-2.48-2.59,5,5,0,0,0-1.94-.72,8.27,8.27,0,0,0-2.27,0c-1.56.18-3.22.46-4.61-.17a4.91,4.91,0,0,1-2.55-2.78,4.6,4.6,0,0,1-.21-2.54,3,3,0,0,1,.23-.66A.88.88,0,0,1,165,172.07Z" style="fill: rgb(255, 255, 255); transform-origin: 172.495px 178.366px;" id="elnfkr4x19un" class="animable"></path></g><g id="freepik--Floor--inject-5" class="animable" style="transform-origin: 248.1px 476.19px;"><path d="M457,476.19c0,.15-93.54.26-208.89.26s-208.91-.11-208.91-.26,93.51-.26,208.91-.26S457,476.05,457,476.19Z" style="fill: rgb(38, 50, 56); transform-origin: 248.1px 476.19px;" id="elwx8tmsznkp" class="animable"></path></g><defs>     <filter id="active" height="200%">         <feMorphology in="SourceAlpha" result="DILATED" operator="dilate" radius="2"></feMorphology>                <feFlood flood-color="#32DFEC" flood-opacity="1" result="PINK"></feFlood>        <feComposite in="PINK" in2="DILATED" operator="in" result="OUTLINE"></feComposite>        <feMerge>            <feMergeNode in="OUTLINE"></feMergeNode>            <feMergeNode in="SourceGraphic"></feMergeNode>        </feMerge>    </filter>    <filter id="hover" height="200%">        <feMorphology in="SourceAlpha" result="DILATED" operator="dilate" radius="2"></feMorphology>                <feFlood flood-color="#ff0000" flood-opacity="0.5" result="PINK"></feFlood>        <feComposite in="PINK" in2="DILATED" operator="in" result="OUTLINE"></feComposite>        <feMerge>            <feMergeNode in="OUTLINE"></feMergeNode>            <feMergeNode in="SourceGraphic"></feMergeNode>        </feMerge>            <feColorMatrix type="matrix" values="0   0   0   0   0                0   1   0   0   0                0   0   0   0   0                0   0   0   1   0 "></feColorMatrix>    </filter></defs></svg>